<?xml version="1.0" encoding="UTF-8" standalone="no"?>
<!-- Created with Inkscape (http://www.inkscape.org/) -->

<svg
   xmlns:dc="http://purl.org/dc/elements/1.1/"
   xmlns:cc="http://creativecommons.org/ns#"
   xmlns:rdf="http://www.w3.org/1999/02/22-rdf-syntax-ns#"
   xmlns:svg="http://www.w3.org/2000/svg"
   xmlns="http://www.w3.org/2000/svg"
   xmlns:xlink="http://www.w3.org/1999/xlink"
   xmlns:sodipodi="http://sodipodi.sourceforge.net/DTD/sodipodi-0.dtd"
   xmlns:inkscape="http://www.inkscape.org/namespaces/inkscape"
   width="248.70833mm"
   height="254mm"
   viewBox="0 0 248.70833 254"
   version="1.1"
   id="svg94720"
   sodipodi:docname="LOGO-sin_fondo.svg"
   inkscape:version="0.92.3 (2405546, 2018-03-11)">
  <defs
     id="defs94714">
    <clipPath
       clipPathUnits="userSpaceOnUse"
       id="clipPath95292">
      <path
         style="fill:#00ff00;stroke:#000000;stroke-width:0.26458332px;stroke-linecap:butt;stroke-linejoin:miter;stroke-opacity:1"
         d="m 30.532509,251.11484 2.939965,-2.33861 2.939965,-2.40543 2.739512,-2.20497 2.605879,-2.33861 2.53906,-2.20497 2.338607,-2.27179 2.204974,-2.20498 2.271792,-2.60588 2.27179,-2.73951 1.937705,-2.40542 1.804069,-2.27179 2.071338,-2.53906 2.071339,-2.87315 1.804069,-2.87315 1.603618,-2.67269 2.004521,-3.20724 1.069078,-1.67043 1.670436,-3.27406 1.603616,-3.40768 1.5368,-3.20723 1.202714,-3.00679 1.336347,-3.60814 1.336347,-3.34086 1.202714,-3.60814 0.868624,-3.27405 0.935445,-2.80633 1.202711,-5.21176 0.734992,-4.27631 0.668176,-4.07586 0.534538,-3.34087 0.267268,-2.47224 0.267272,-3.14042 -0.06682,-2.20498 0.267269,-2.87314 0.200451,-0.46773 -0.06682,-6.21401 -0.267272,-0.13364 0.06682,-2.53906 -0.133636,-1.9377 -0.06682,-1.40317 -0.200456,-1.67043 -0.06682,-1.40316 -0.200451,-1.87089 -0.133636,-2.00452 -0.133633,-1.73726 -0.267269,-1.87088 -0.200453,-1.80407 -0.400905,-1.87089 -0.46772,-2.20497 -0.53454,-2.47224 -0.400905,-2.07135 -0.668173,-2.60587 -0.601356,-2.40543 -0.801809,-2.73951 -0.801809,-2.40543 -0.668174,-2.00452 -0.668173,-1.9377 -0.601356,-1.67044 -0.868627,-2.07134 -0.668173,-1.60361 -0.801809,-1.937705 -0.868628,-2.204974 -1.069078,-2.271789 -1.135893,-2.33861 -1.135896,-2.405425 -1.269532,-2.33861 -1.069078,-2.00452 -1.403164,-2.204974 -1.670434,-2.873148 -1.469983,-2.338607 -1.737251,-2.33861 -1.80407,-2.672693 -1.5368,-1.737255 L 54.720391,66.832502 53.584496,65.162066 51.579975,62.890277 49.775906,60.752118 47.704565,58.480329 45.83368,56.743077 43.495071,54.471285 41.824647,52.800852 39.95376,51.130416 38.550595,49.99452 34.474734,46.653652 30.933413,44.114591 27.058006,41.375078 24.051222,39.504192 21.178075,37.76694 18.572199,36.296957 15.43178,34.626523 12.024095,33.15654 8.5495918,31.686558 6.3446178,30.951567 3.3378346,29.281132 -1.0721134,27.54388 -5.014339,26.073898 l -5.34539,-1.5368 -2.939966,-0.801808 -3.875407,-1.002261 -3.207234,-0.734991 -3.674957,-0.668174 -2.739512,-0.534539 -3.80859,-0.467722 -3.407685,-0.267269 -3.741774,-0.200452 -2.672697,-0.06682 -3.073598,-0.200452 -2.271792,-0.06682 -2.672694,0.200452 -2.204974,0.200452 -3.274052,-0.06682 -2.672694,0.267269 -2.472245,0.26727 -3.006781,0.534539 -2.739514,0.334087 -3.741772,0.801808 -2.873145,0.668174 -2.739514,0.534539 -3.407688,0.801809 -4.209497,1.26953 -4.27631,1.469982 -2.806329,1.135896 -3.80859,1.469982 -3.140416,1.336348 -3.34087,1.469982 -3.006784,1.5368 -2.80633,1.670434 -3.0736,1.870887 -3.00678,1.937704 -3.00678,1.870887 -2.87315,1.937704 -2.73951,2.204973 -2.73952,2.271791 -2.87314,2.472243 -2.53906,2.071341 -2.40543,2.138156 -2.40543,2.605876 -2.13815,2.405427 -2.20498,2.405425 -2.40542,2.939966 -2.33861,2.873147 -2.07134,3.073598 -1.46998,2.004523 -1.9377,2.939963 -1.80407,3.073601 -1.67044,2.80633 -1.13589,2.271792 -1.26953,2.405425 -1.20272,2.53906 -0.86862,1.870888 -0.66818,1.670431 -0.73499,1.87089 -0.66817,1.603613 -0.73499,2.204974 -0.66818,2.004523 -0.73499,2.138159 -0.60135,2.00452 -0.53454,1.60362 -0.53454,1.60361 -0.60136,2.07134 -0.53454,2.07134 -0.53454,2.60588 -0.46772,2.87314 -0.46772,2.53906 -0.33409,2.60588 -0.33408,2.60588 -0.13364,1.80407 -0.13363,2.27179 -0.20046,2.07134 -0.20045,2.53906 -0.26727,3.54132 0.0668,2.87315 0.26727,2.67269 v 2.53906 l 0.20045,2.87315 0.26727,3.40769 0.26727,2.47224 0.33409,2.53906 0.13363,4.07586 0.26727,3.14042 0.53454,4.00904 0.60136,3.67496 0.60135,3.40769 0.80181,3.34086 0.86863,3.54132 0.73499,2.60588 0.53454,1.5368 1.13589,3.40769 1.20272,3.27405 1.5368,4.00904 1.46998,3.40769 1.9377,4.07586 2.60588,4.74403 2.13816,3.74178 1.87088,3.14041 0.86863,1.26953 1.87089,2.80633 1.5368,2.20498 2.80633,3.67495 2.40542,3.20724 1.87089,2.27179 1.87088,2.20497 2.60588,2.60588 2.40543,2.6727 1.60362,1.53679 2.80633,2.33861 2.13815,1.93771 2.13816,1.87088 3.20723,2.6727 3.60814,2.53906 3.34087,2.40543 3.00678,1.9377 3.20724,1.73725 2.47224,1.33635 3.608139,1.9377 3.608139,1.67044 3.541321,1.46998 3.140416,1.20271 3.34087,1.20272 2.672694,1.13589 3.006783,0.93544 3.407685,1.00227 4.409948,1.00226 3.875408,1.06907 4.34313,0.735 5.946746,0.86862 3.006783,0.33409 3.80859,0.26727 3.541324,0.20045 7.283092,0.13364 4.677217,-0.53454 5.946749,-0.46772 5.078121,-0.735 5.011304,-0.93544 5.81311,-1.20271 6.5481041,-1.93771 5.4122081,-1.87088 6.614922,-2.60588 3.2740498,-1.46998 3.207234,-1.67044 3.942223,-2.20497 3.87541,-2.00452 1.403165,-0.53454 2.806332,1.80407 2.672694,1.73725 2.204974,1.33635 2.672694,1.06907 1.670436,0.735 1.603616,-0.0668 v -0.60136 l -0.133636,-1.33635 -1.269529,-2.20497 -2.004523,-2.73951 -2.204974,-2.40543 z"
         id="path95294"
         inkscape:connector-curvature="0" />
    </clipPath>
    <clipPath
       clipPathUnits="userSpaceOnUse"
       id="clipPath95353">
      <path
         style="fill:#00ff00;stroke:#000000;stroke-width:0.26458332px;stroke-linecap:butt;stroke-linejoin:miter;stroke-opacity:1"
         d="m -45.773071,19.52569 -2.672707,0.200505 -2.205032,0.200504 -3.273703,-0.06666 -2.672704,0.267167 -2.472201,0.267167 -3.007048,0.534334 -2.739368,0.334347 -3.741891,0.802018 -2.873209,0.668176 -2.739368,0.534335 -3.407545,0.802018 -4.209561,1.269173 -4.276225,1.470194 -2.806546,1.135849 -3.808553,1.470194 -3.140377,1.336352 -3.340883,1.469678 -3.007048,1.536857 -2.80603,1.670182 -3.07372,1.871204 -3.00653,1.937866 -3.00705,1.870687 -2.87321,1.937866 -2.73937,2.205034 -2.73937,2.271695 -2.87321,2.472201 -2.53938,2.071192 -2.40502,2.138371 -2.40554,2.605524 -2.13837,2.405539 -2.20503,2.405538 -2.40502,2.939873 -2.33888,2.873208 -2.07119,3.073715 -1.47019,2.004529 -1.93735,2.939872 -1.80454,3.073715 -1.67019,2.806031 -1.13585,2.271694 -1.26968,2.405539 -1.20252,2.53938 -0.86868,1.870687 -0.66817,1.670182 -0.73484,1.871202 -0.66818,1.603521 -0.73535,2.205034 -0.66818,2.004529 -0.73484,2.138372 -0.60151,2.00401 -0.53434,1.60404 -0.53433,1.60351 -0.60151,2.0712 -0.53486,2.07119 -0.53433,2.60604 -0.46767,2.87321 -0.46767,2.53886 -0.33435,2.60604 -0.33383,2.60605 -0.13384,1.80402 -0.13333,2.2717 -0.2005,2.07119 -0.20051,2.53938 -0.26716,3.54138 0.0667,2.8727 0.26717,2.6727 v 2.53938 l 0.2005,2.87321 0.26717,3.40754 0.26717,2.4722 0.33434,2.53887 0.13384,4.07623 0.26717,3.14038 0.53434,4.00906 0.60151,3.67471 0.60151,3.40754 0.8015,3.34089 0.86869,3.54138 0.73483,2.60604 0.53486,1.53686 1.13584,3.40754 1.20251,3.27422 1.53686,4.00906 1.4702,3.40754 1.93734,4.07573 2.60605,4.74441 2.13837,3.74137 1.87068,3.14038 0.86869,1.26969 1.87068,2.80654 1.53686,2.20504 2.80655,3.67471 2.40553,3.20704 1.87069,2.27221 1.87069,2.20504 2.60604,2.60552 2.40554,2.67271 1.60352,1.53685 2.80655,2.33888 2.13785,1.93735 2.13837,1.8712 3.20704,2.67271 3.60805,2.53886 3.34088,2.40554 3.00705,1.93786 3.20704,1.73685 2.472202,1.33635 3.608047,1.93787 3.608567,1.67018 3.540869,1.47019 3.140376,1.20251 3.340881,1.20303 2.672704,1.13585 3.007053,0.93534 3.407545,1.00253 4.410065,1.002 3.875217,1.06919 4.3434,0.73484 5.946407,0.86868 3.007053,0.33434 3.808553,0.26717 3.541387,0.20051 7.283275,0.13332 4.677233,-0.53433 5.946407,-0.46768 5.078243,-0.73535 5.011066,-0.93534 5.813081,-1.20251 6.5484373,-1.93787 5.4120733,-1.87069 6.6150992,-2.60604 3.2737032,-1.46968 3.207554,-1.6707 3.941879,-2.20503 3.875733,-2.00453 1.403014,-0.53433 2.806546,1.80402 2.672708,1.73736 2.205032,1.33636 2.672704,1.06866 1.670182,0.73536 1.603521,-0.0672 v -0.601 l -0.133326,-1.33635 -1.269688,-2.20503 -2.004531,-2.73937 -2.205032,-2.40554 -1.737363,-1.6707 2.939873,-2.33836 2.940389,-2.40553 2.739368,-2.20504 2.606043,-2.33836 2.538862,-2.20503 2.338359,-2.2717 2.205035,-2.20503 2.272212,-2.60604 2.271694,-2.73937 1.937351,-2.40554 1.80454,-2.27169 2.071193,-2.53938 2.07119,-2.8727 1.804024,-2.87321 1.603521,-2.6727 2.004528,-3.20756 1.069187,-1.67018 1.670698,-3.27422 1.60352,-3.40754 1.536857,-3.20704 1.20251,-3.00705 1.336352,-3.60805 1.336352,-3.34088 1.202513,-3.60805 0.86868,-3.27422 0.93586,-2.80655 1.20251,-5.21157 0.734838,-4.27622 0.668176,-4.07572 0.534853,-3.34088 0.267168,-2.4722 0.267166,-3.14038 -0.06666,-2.20503 0.267166,-2.87321 0.200506,-0.46767 -0.06666,-6.21409 -0.267684,-0.13385 0.06718,-2.53886 -0.133842,-1.93787 -0.06666,-1.40301 -0.200504,-1.6707 -0.06666,-1.40302 -0.200504,-1.87068 -0.133842,-2.00453 -0.133842,-1.73736 -0.267169,-1.87069 -0.200504,-1.80454 -0.400492,-1.87069 -0.468188,-2.20503 -0.534334,-2.4722 -0.40101,-2.07119 -0.668176,-2.60604 -0.600996,-2.40554 -0.802018,-2.73937 -0.802018,-2.40553 -0.668177,-2.00454 -0.668176,-1.93734 -0.600998,-1.6707 -0.86868,-2.07119 -0.668176,-1.603523 -0.802018,-1.937864 -0.86868,-2.205035 L 70.956754,92.62407 69.820906,90.285196 68.685058,87.880175 67.415886,85.541298 66.346699,83.53677 64.943685,81.331738 63.272984,78.458527 61.80279,76.120169 60.065946,73.781294 58.261921,71.108587 56.725065,69.371743 54.720537,66.832362 53.584689,65.16218 51.58016,62.890486 49.776136,60.752115 47.704427,58.480419 45.833738,56.743056 43.494864,54.47136 41.824682,52.800661 39.953996,51.130479 38.550463,49.994631 34.474742,46.65375 30.933358,44.11437 27.058141,41.375002 24.05109,39.504315 21.177879,37.766954 18.572355,36.296759 15.431978,34.626577 12.023918,33.156383 8.5497108,31.686705 6.344676,30.951349 3.3376255,29.281167 l -4.4095484,-1.737362 -3.9423975,-1.469677 -5.3454086,-1.536857 -2.939873,-0.802019 -3.875733,-1.002006 -3.207038,-0.735355 -3.674711,-0.668177 -2.739885,-0.534334 -3.808553,-0.467672 -3.407545,-0.267167 -3.74189,-0.200504 -2.672705,-0.06718 -3.073715,-0.200504 z m 74.7019,232.35739 0.46767,0.86868 1.336355,1.83762 1.069184,1.2361 1.26969,1.4366 0.701249,0.93535 0.334346,0.60151 -0.53485,0.0331 -0.868164,-0.56792 -1.303279,-0.90176 -1.135848,-0.76843 -0.901756,-0.66817 -0.968931,-0.63459 -0.968933,-0.6351 -1.302763,-0.76843 1.002006,-0.73484 z"
         id="path95355"
         inkscape:connector-curvature="0" />
    </clipPath>
    <clipPath
       clipPathUnits="userSpaceOnUse"
       id="clipPath95357">
      <path
         style="fill:#00ff00;stroke:#000000;stroke-width:0.26458332px;stroke-linecap:butt;stroke-linejoin:miter;stroke-opacity:1"
         d="m -45.773071,19.52569 -2.672707,0.200505 -2.205032,0.200504 -3.273703,-0.06666 -2.672704,0.267167 -2.472201,0.267167 -3.007048,0.534334 -2.739368,0.334347 -3.741891,0.802018 -2.873209,0.668176 -2.739368,0.534335 -3.407545,0.802018 -4.209561,1.269173 -4.276225,1.470194 -2.806546,1.135849 -3.808553,1.470194 -3.140377,1.336352 -3.340883,1.469678 -3.007048,1.536857 -2.80603,1.670182 -3.07372,1.871204 -3.00653,1.937866 -3.00705,1.870687 -2.87321,1.937866 -2.73937,2.205034 -2.73937,2.271695 -2.87321,2.472201 -2.53938,2.071192 -2.40502,2.138371 -2.40554,2.605524 -2.13837,2.405539 -2.20503,2.405538 -2.40502,2.939873 -2.33888,2.873208 -2.07119,3.073715 -1.47019,2.004529 -1.93735,2.939872 -1.80454,3.073715 -1.67019,2.806031 -1.13585,2.271694 -1.26968,2.405539 -1.20252,2.53938 -0.86868,1.870687 -0.66817,1.670182 -0.73484,1.871202 -0.66818,1.603521 -0.73535,2.205034 -0.66818,2.004529 -0.73484,2.138372 -0.60151,2.00401 -0.53434,1.60404 -0.53433,1.60351 -0.60151,2.0712 -0.53486,2.07119 -0.53433,2.60604 -0.46767,2.87321 -0.46767,2.53886 -0.33435,2.60604 -0.33383,2.60605 -0.13384,1.80402 -0.13333,2.2717 -0.2005,2.07119 -0.20051,2.53938 -0.26716,3.54138 0.0667,2.8727 0.26717,2.6727 v 2.53938 l 0.2005,2.87321 0.26717,3.40754 0.26717,2.4722 0.33434,2.53887 0.13384,4.07623 0.26717,3.14038 0.53434,4.00906 0.60151,3.67471 0.60151,3.40754 0.8015,3.34089 0.86869,3.54138 0.73483,2.60604 0.53486,1.53686 1.13584,3.40754 1.20251,3.27422 1.53686,4.00906 1.4702,3.40754 1.93734,4.07573 2.60605,4.74441 2.13837,3.74137 1.87068,3.14038 0.86869,1.26969 1.87068,2.80654 1.53686,2.20504 2.80655,3.67471 2.40553,3.20704 1.87069,2.27221 1.87069,2.20504 2.60604,2.60552 2.40554,2.67271 1.60352,1.53685 2.80655,2.33888 2.13785,1.93735 2.13837,1.8712 3.20704,2.67271 3.60805,2.53886 3.34088,2.40554 3.00705,1.93786 3.20704,1.73685 2.472202,1.33635 3.608047,1.93787 3.608567,1.67018 3.540869,1.47019 3.140376,1.20251 3.340881,1.20303 2.672704,1.13585 3.007053,0.93534 3.407545,1.00253 4.410065,1.002 3.875217,1.06919 4.3434,0.73484 5.946407,0.86868 3.007053,0.33434 3.808553,0.26717 3.541387,0.20051 7.283275,0.13332 4.677233,-0.53433 5.946407,-0.46768 5.078243,-0.73535 5.011066,-0.93534 5.813081,-1.20251 6.5484373,-1.93787 5.4120733,-1.87069 6.6150992,-2.60604 3.2737032,-1.46968 3.207554,-1.6707 3.941879,-2.20503 3.875733,-2.00453 1.403014,-0.53433 2.806546,1.80402 2.672708,1.73736 2.205032,1.33636 2.672704,1.06866 1.670182,0.73536 1.603521,-0.0672 v -0.601 l -0.133326,-1.33635 -1.269688,-2.20503 -2.004531,-2.73937 -2.205032,-2.40554 -1.737363,-1.6707 2.939873,-2.33836 2.940389,-2.40553 2.739368,-2.20504 2.606043,-2.33836 2.538862,-2.20503 2.338359,-2.2717 2.205035,-2.20503 2.272212,-2.60604 2.271694,-2.73937 1.937351,-2.40554 1.80454,-2.27169 2.071193,-2.53938 2.07119,-2.8727 1.804024,-2.87321 1.603521,-2.6727 2.004528,-3.20756 1.069187,-1.67018 1.670698,-3.27422 1.60352,-3.40754 1.536857,-3.20704 1.20251,-3.00705 1.336352,-3.60805 1.336352,-3.34088 1.202513,-3.60805 0.86868,-3.27422 0.93586,-2.80655 1.20251,-5.21157 0.734838,-4.27622 0.668176,-4.07572 0.534853,-3.34088 0.267168,-2.4722 0.267166,-3.14038 -0.06666,-2.20503 0.267166,-2.87321 0.200506,-0.46767 -0.06666,-6.21409 -0.267684,-0.13385 0.06718,-2.53886 -0.133842,-1.93787 -0.06666,-1.40301 -0.200504,-1.6707 -0.06666,-1.40302 -0.200504,-1.87068 -0.133842,-2.00453 -0.133842,-1.73736 -0.267169,-1.87069 -0.200504,-1.80454 -0.400492,-1.87069 -0.468188,-2.20503 -0.534334,-2.4722 -0.40101,-2.07119 -0.668176,-2.60604 -0.600996,-2.40554 -0.802018,-2.73937 -0.802018,-2.40553 -0.668177,-2.00454 -0.668176,-1.93734 -0.600998,-1.6707 -0.86868,-2.07119 -0.668176,-1.603523 -0.802018,-1.937864 -0.86868,-2.205035 L 70.956754,92.62407 69.820906,90.285196 68.685058,87.880175 67.415886,85.541298 66.346699,83.53677 64.943685,81.331738 63.272984,78.458527 61.80279,76.120169 60.065946,73.781294 58.261921,71.108587 56.725065,69.371743 54.720537,66.832362 53.584689,65.16218 51.58016,62.890486 49.776136,60.752115 47.704427,58.480419 45.833738,56.743056 43.494864,54.47136 41.824682,52.800661 39.953996,51.130479 38.550463,49.994631 34.474742,46.65375 30.933358,44.11437 27.058141,41.375002 24.05109,39.504315 21.177879,37.766954 18.572355,36.296759 15.431978,34.626577 12.023918,33.156383 8.5497108,31.686705 6.344676,30.951349 3.3376255,29.281167 l -4.4095484,-1.737362 -3.9423975,-1.469677 -5.3454086,-1.536857 -2.939873,-0.802019 -3.875733,-1.002006 -3.207038,-0.735355 -3.674711,-0.668177 -2.739885,-0.534334 -3.808553,-0.467672 -3.407545,-0.267167 -3.74189,-0.200504 -2.672705,-0.06718 -3.073715,-0.200504 z m 74.7019,232.35739 0.46767,0.86868 1.336355,1.83762 1.069184,1.2361 1.26969,1.4366 0.701249,0.93535 0.334346,0.60151 -0.53485,0.0331 -0.868164,-0.56792 -1.303279,-0.90176 -1.135848,-0.76843 -0.901756,-0.66817 -0.968931,-0.63459 -0.968933,-0.6351 -1.302763,-0.76843 1.002006,-0.73484 z"
         id="path95359"
         inkscape:connector-curvature="0" />
    </clipPath>
  </defs>
  <sodipodi:namedview
     id="base"
     pagecolor="#ffffff"
     bordercolor="#666666"
     borderopacity="1.0"
     inkscape:pageopacity="0.0"
     inkscape:pageshadow="2"
     inkscape:zoom="0.49497475"
     inkscape:cx="457.05289"
     inkscape:cy="491.13673"
     inkscape:document-units="mm"
     inkscape:current-layer="layer1"
     showgrid="false"
     fit-margin-top="0"
     fit-margin-left="0"
     fit-margin-right="0"
     fit-margin-bottom="0"
     inkscape:window-width="1366"
     inkscape:window-height="705"
     inkscape:window-x="-8"
     inkscape:window-y="-8"
     inkscape:window-maximized="1" />
  <metadata
     id="metadata94717">
    <rdf:RDF>
      <cc:Work
         rdf:about="">
        <dc:format>image/svg+xml</dc:format>
        <dc:type
           rdf:resource="http://purl.org/dc/dcmitype/StillImage" />
        <dc:title></dc:title>
      </cc:Work>
    </rdf:RDF>
  </metadata>
  <g
     inkscape:label="Capa 1"
     inkscape:groupmode="layer"
     id="layer1"
     transform="translate(165.1756,-19.565481)">
    <image
       sodipodi:absref="C:\Users\carlu\Documents\FaMAF\ENEA\logo001.jpg"
       y="19.565481"
       x="-165.1756"
       id="image95273"
       xlink:href="file:///C:/Users/carlu/Documents/FaMAF/ENEA/logo001.jpg"
       preserveAspectRatio="none"
       height="254"
       width="248.70833"
       clip-path="url(#clipPath95357)" />
    <image
       width="248.70833"
       height="254"
       preserveAspectRatio="none"
       xlink:href="file:///C:/Users/carlu/Documents/FaMAF/ENEA/logo001.jpg"
       id="image95276"
       x="-165.1756"
       y="19.565481"
       sodipodi:absref="C:\Users\carlu\Documents\FaMAF\ENEA\logo001.jpg"
       clip-path="url(#clipPath95353)" />
  </g>
</svg>
